G04 EAGLE Gerber RS-274X export*
G75*
%MOMM*%
%FSLAX34Y34*%
%LPD*%
%INSoldermask Top*%
%IPPOS*%
%AMOC8*
5,1,8,0,0,1.08239X$1,22.5*%
G01*
%ADD10P,2.556822X8X202.500000*%
%ADD11P,2.556822X8X22.500000*%
%ADD12P,2.556822X8X112.500000*%
%ADD13P,1.649562X8X112.500000*%
%ADD14C,1.524000*%
%ADD15C,2.451100*%
%ADD16C,1.524000*%
%ADD17P,1.649562X8X22.500000*%
%ADD18P,1.649562X8X292.500000*%
%ADD19P,1.649562X8X202.500000*%
%ADD20C,1.727200*%
%ADD21C,1.993900*%


D10*
X268876Y787315D03*
X119016Y787315D03*
D11*
X312057Y786758D03*
X461917Y786758D03*
D12*
X48646Y562318D03*
X48646Y712178D03*
X147942Y562273D03*
X147942Y712133D03*
D13*
X560436Y286367D03*
D14*
X560436Y266047D03*
D15*
X433221Y536167D02*
X433221Y558646D01*
X433221Y688567D02*
X433221Y711046D01*
X496274Y711313D02*
X496274Y688834D01*
X496274Y558913D02*
X496274Y536434D01*
X559291Y537017D02*
X559291Y559496D01*
X559291Y689417D02*
X559291Y711896D01*
X560059Y501831D02*
X560059Y479352D01*
X560059Y349431D02*
X560059Y326952D01*
X297738Y431375D02*
X275259Y431375D01*
X145338Y431375D02*
X122859Y431375D01*
X274800Y496019D02*
X297279Y496019D01*
X144879Y496019D02*
X122400Y496019D01*
X122592Y304625D02*
X145071Y304625D01*
X274992Y304625D02*
X297471Y304625D01*
X145249Y367556D02*
X122770Y367556D01*
X275170Y367556D02*
X297649Y367556D01*
D16*
X437218Y368249D02*
X450426Y368249D01*
X348826Y368249D02*
X335618Y368249D01*
D17*
X342415Y432575D03*
X444015Y432575D03*
D18*
X477711Y403018D03*
X477711Y301418D03*
X515475Y403079D03*
X515475Y301479D03*
D19*
X443751Y402167D03*
X342151Y402167D03*
X444093Y468030D03*
X342493Y468030D03*
D20*
X358878Y323116D02*
X358878Y307876D01*
X384278Y307876D02*
X384278Y323116D01*
X409678Y323116D02*
X409678Y307876D01*
D21*
X63073Y761139D02*
X45166Y761139D01*
X45166Y811139D02*
X63073Y811139D01*
X64830Y349601D02*
X46923Y349601D01*
X46923Y399601D02*
X64830Y399601D01*
X64830Y449601D02*
X46923Y449601D01*
X46923Y499601D02*
X64830Y499601D01*
D12*
X249695Y561236D03*
X249695Y711096D03*
D11*
X18195Y887505D03*
X168055Y887505D03*
D12*
X349243Y560742D03*
X349243Y710602D03*
D11*
X208932Y887394D03*
X358792Y887394D03*
M02*
