M48
;GenerationSoftware,Autodesk,EAGLE,9.6.2*%
;CreationDate,2024-09-10T21:15:18Z*%
FMAT,2
ICI,OFF
METRIC,TZ,000.000
T5C0.813
T4C1.016
T3C1.194
T2C1.499
%
G90
M71
T2
X49627Y54767
X28641Y36756
X13401Y36756
X28623Y30463
X13383Y30463
X13364Y49602
X28604Y49602
X13410Y43138
X28650Y43138
X56006Y33819
X56006Y49059
X55929Y70066
X55929Y54826
X49627Y70007
X43322Y69981
X43322Y54741
T3
X5588Y49960
X5588Y44960
X5588Y39960
X5588Y34960
X5412Y81114
X5412Y76114
T4
X35888Y31550
X40968Y31550
X38428Y31550
X11902Y78732
X24969Y56124
X24969Y71110
X1819Y88750
X16805Y88750
X34924Y56074
X34924Y71060
X20893Y88739
X35879Y88739
X26888Y78732
X31206Y78676
X46192Y78676
X4865Y56232
X4865Y71218
X14794Y56227
X14794Y71213
T5
X34222Y36825
X56044Y28637
X56044Y26605
X44382Y36825
X44375Y40217
X34242Y43257
X44402Y43257
X47771Y40302
X47771Y30142
X51547Y40308
X51547Y30148
X34249Y46803
X44409Y46803
X34215Y40217
M30